<svg xmlns="http://www.w3.org/2000/svg" xmlns:xlink="http://www.w3.org/1999/xlink" viewBox="0 0 278.15 220.84"><defs><style>.cls-1{isolation:isolate;}.cls-2{fill:url(#radial-gradient);}.cls-10,.cls-12,.cls-17,.cls-22,.cls-24,.cls-29,.cls-3,.cls-6{mix-blend-mode:multiply;}.cls-3{fill:url(#linear-gradient);}.cls-4{fill:url(#linear-gradient-2);}.cls-5{fill:url(#radial-gradient-2);}.cls-6{fill:#5623af;}.cls-15,.cls-7{mix-blend-mode:screen;}.cls-7{fill:url(#radial-gradient-3);}.cls-8{fill:url(#radial-gradient-4);}.cls-9{fill:url(#radial-gradient-5);}.cls-10{fill:url(#linear-gradient-3);}.cls-11{fill:url(#radial-gradient-6);}.cls-12{opacity:0.75;fill:url(#linear-gradient-4);}.cls-13{fill:url(#radial-gradient-7);}.cls-14{fill:url(#radial-gradient-8);}.cls-15{fill:url(#radial-gradient-9);}.cls-16{fill:url(#radial-gradient-10);}.cls-17{fill:url(#linear-gradient-5);}.cls-18{fill:url(#radial-gradient-11);}.cls-19{fill:url(#radial-gradient-12);}.cls-20{fill:url(#radial-gradient-13);}.cls-21{fill:url(#radial-gradient-14);}.cls-22{fill:url(#linear-gradient-6);}.cls-23,.cls-30{mix-blend-mode:overlay;}.cls-23{fill:url(#linear-gradient-7);}.cls-24{fill:url(#linear-gradient-8);}.cls-25{fill:url(#radial-gradient-15);}.cls-26{fill:url(#radial-gradient-16);}.cls-27{fill:url(#radial-gradient-17);}.cls-28{fill:url(#radial-gradient-18);}.cls-29{fill:url(#linear-gradient-9);}.cls-30{fill:url(#linear-gradient-10);}.cls-31{fill:url(#radial-gradient-19);}.cls-32{fill:url(#linear-gradient-11);}</style><radialGradient id="radial-gradient" cx="220.07" cy="171.93" r="88.38" gradientTransform="translate(46.1 -28.32) rotate(11.56)" gradientUnits="userSpaceOnUse"><stop offset="0.06" stop-color="#faf1d6"/><stop offset="0.32" stop-color="#f9edd4"/><stop offset="0.59" stop-color="#f7e1cd"/><stop offset="0.86" stop-color="#f3ccc2"/><stop offset="1" stop-color="#f0bfbb"/></radialGradient><linearGradient id="linear-gradient" x1="130.25" y1="218.32" x2="176.78" y2="188.35" gradientUnits="userSpaceOnUse"><stop offset="0" stop-color="#faf1d6" stop-opacity="0"/><stop offset="0.13" stop-color="#faf0d6" stop-opacity="0.02"/><stop offset="0.26" stop-color="#f9eed4" stop-opacity="0.07"/><stop offset="0.39" stop-color="#f8e9d2" stop-opacity="0.15"/><stop offset="0.52" stop-color="#f7e3cf" stop-opacity="0.27"/><stop offset="0.65" stop-color="#f6dcca" stop-opacity="0.43"/><stop offset="0.78" stop-color="#f4d2c5" stop-opacity="0.62"/><stop offset="0.91" stop-color="#f2c7bf" stop-opacity="0.84"/><stop offset="1" stop-color="#f0bfbb"/></linearGradient><linearGradient id="linear-gradient-2" x1="214.09" y1="133.09" x2="155.15" y2="207.92" gradientUnits="userSpaceOnUse"><stop offset="0" stop-color="#f20074"/><stop offset="0.14" stop-color="#ed0376"/><stop offset="0.31" stop-color="#df0b7d"/><stop offset="0.49" stop-color="#c71887"/><stop offset="0.67" stop-color="#a62a96"/><stop offset="0.87" stop-color="#7b42a9"/><stop offset="0.9" stop-color="#7446ac"/></linearGradient><radialGradient id="radial-gradient-2" cx="232.27" cy="2.54" r="312.65" gradientUnits="userSpaceOnUse"><stop offset="0" stop-color="#8454ff"/><stop offset="1" stop-color="#110073"/></radialGradient><radialGradient id="radial-gradient-3" cx="115.19" cy="66.45" r="157.54" xlink:href="#radial-gradient-2"/><radialGradient id="radial-gradient-4" cx="223.99" cy="20.42" r="171.22" gradientTransform="matrix(1, 0, 0, 1, 0, 0)" xlink:href="#radial-gradient"/><radialGradient id="radial-gradient-5" cx="1.37" cy="53.09" r="136.22" gradientTransform="translate(21.25 -4.43) rotate(9.45)" xlink:href="#radial-gradient"/><linearGradient id="linear-gradient-3" x1="14.81" y1="195.65" x2="41.96" y2="147.75" xlink:href="#linear-gradient"/><radialGradient id="radial-gradient-6" cx="24.99" cy="78.7" r="82.52" gradientTransform="translate(28.4 -2.86) rotate(12.41)" xlink:href="#linear-gradient-2"/><linearGradient id="linear-gradient-4" x1="16.64" y1="173.43" x2="22.76" y2="144.46" gradientUnits="userSpaceOnUse"><stop offset="0" stop-color="#f20074" stop-opacity="0"/><stop offset="0.13" stop-color="#ee0276" stop-opacity="0.03"/><stop offset="0.29" stop-color="#e4087a" stop-opacity="0.11"/><stop offset="0.45" stop-color="#d21282" stop-opacity="0.25"/><stop offset="0.63" stop-color="#ba1f8d" stop-opacity="0.44"/><stop offset="0.81" stop-color="#9b309b" stop-opacity="0.69"/><stop offset="1" stop-color="#7545ac" stop-opacity="0.99"/><stop offset="1" stop-color="#7446ac"/></linearGradient><radialGradient id="radial-gradient-7" cx="28.63" cy="95.92" r="30.4" gradientTransform="translate(28.95 -1.33) rotate(12.41)" xlink:href="#radial-gradient"/><radialGradient id="radial-gradient-8" cx="15.97" cy="100.09" r="53.32" gradientTransform="matrix(1, 0, 0, 1, 0, 0)" xlink:href="#radial-gradient"/><radialGradient id="radial-gradient-9" cx="11.86" cy="129.69" r="14.49" gradientUnits="userSpaceOnUse"><stop offset="0.06" stop-color="#faf1d6"/><stop offset="0.17" stop-color="#faf0d6" stop-opacity="0.98"/><stop offset="0.29" stop-color="#f9eed4" stop-opacity="0.93"/><stop offset="0.41" stop-color="#f9ead2" stop-opacity="0.85"/><stop offset="0.53" stop-color="#f7e4cf" stop-opacity="0.74"/><stop offset="0.66" stop-color="#f6dccb" stop-opacity="0.59"/><stop offset="0.78" stop-color="#f4d3c6" stop-opacity="0.41"/><stop offset="0.9" stop-color="#f2c9c0" stop-opacity="0.2"/><stop offset="1" stop-color="#f0bfbb" stop-opacity="0"/></radialGradient><radialGradient id="radial-gradient-10" cx="13.9" cy="147.24" r="18.02" gradientUnits="userSpaceOnUse"><stop offset="0" stop-color="#2d77a1"/><stop offset="1" stop-color="#5bf09e"/></radialGradient><linearGradient id="linear-gradient-5" x1="71.13" y1="172.21" x2="120.57" y2="105.54" xlink:href="#linear-gradient"/><radialGradient id="radial-gradient-11" cx="152.58" cy="42.5" r="105.36" xlink:href="#linear-gradient-2"/><radialGradient id="radial-gradient-12" cx="174.49" cy="37.31" r="32.19" xlink:href="#linear-gradient-2"/><radialGradient id="radial-gradient-13" cx="175.47" cy="62.28" r="90.25" gradientUnits="userSpaceOnUse"><stop offset="0" stop-color="#fff"/><stop offset="0.45" stop-color="#fffbfb"/><stop offset="0.9" stop-color="#ffefef"/><stop offset="1" stop-color="#ffeceb"/></radialGradient><radialGradient id="radial-gradient-14" cx="131.44" cy="111.48" r="33.62" xlink:href="#radial-gradient-10"/><linearGradient id="linear-gradient-6" x1="128.44" y1="100.39" x2="126.01" y2="133.06" gradientUnits="userSpaceOnUse"><stop offset="0" stop-color="#2d77a1"/><stop offset="1" stop-color="#5bf09e" stop-opacity="0"/></linearGradient><linearGradient id="linear-gradient-7" x1="132.74" y1="79.51" x2="136.38" y2="85.03" gradientUnits="userSpaceOnUse"><stop offset="0" stop-color="#fff"/><stop offset="0.12" stop-color="#fff" stop-opacity="0.98"/><stop offset="0.25" stop-color="#fffefe" stop-opacity="0.94"/><stop offset="0.37" stop-color="#fffcfc" stop-opacity="0.86"/><stop offset="0.5" stop-color="snow" stop-opacity="0.74"/><stop offset="0.63" stop-color="#fff7f7" stop-opacity="0.6"/><stop offset="0.76" stop-color="#fff4f3" stop-opacity="0.42"/><stop offset="0.88" stop-color="#fff0ef" stop-opacity="0.21"/><stop offset="1" stop-color="#ffeceb" stop-opacity="0"/></linearGradient><linearGradient id="linear-gradient-8" x1="171.32" y1="148.77" x2="220.76" y2="82.11" xlink:href="#linear-gradient"/><radialGradient id="radial-gradient-15" cx="252.77" cy="19.06" r="105.36" xlink:href="#linear-gradient-2"/><radialGradient id="radial-gradient-16" cx="274.68" cy="13.87" r="32.19" xlink:href="#linear-gradient-2"/><radialGradient id="radial-gradient-17" cx="275.65" cy="38.84" r="90.25" xlink:href="#radial-gradient-13"/><radialGradient id="radial-gradient-18" cx="231.63" cy="88.04" r="33.62" gradientTransform="translate(34.56 -71.23) rotate(18.76)" xlink:href="#radial-gradient-10"/><linearGradient id="linear-gradient-9" x1="228.63" y1="76.95" x2="226.2" y2="109.62" xlink:href="#linear-gradient-6"/><linearGradient id="linear-gradient-10" x1="232.93" y1="56.08" x2="236.57" y2="61.59" xlink:href="#linear-gradient-7"/><radialGradient id="radial-gradient-19" cx="179.62" cy="146.24" r="35.45" xlink:href="#radial-gradient-2"/><linearGradient id="linear-gradient-11" x1="200.73" y1="125.14" x2="185.29" y2="149.22" xlink:href="#linear-gradient-2"/></defs><title>Global</title><g class="cls-1"><g id="Layer_2" data-name="Layer 2"><g id="OBJECTS"><ellipse class="cls-2" cx="171.07" cy="197.84" rx="53.24" ry="19.9" transform="translate(-41.45 45.38) rotate(-13.49)"/><path class="cls-3" d="M178.35,176.16c-3.87.58-7.86,1.35-11.93,2.33-28.59,6.86-49.69,21.09-47.12,31.78,2.11,8.79,19.57,12.44,41.61,9.64,12.68-5,24.52-11.47,31.29-17.38,14.24-12.41,9.75-18,9.75-18Z"/><path class="cls-4" d="M202,184.54a5.13,5.13,0,0,0-1.14-2.06h0a6.33,6.33,0,0,0-.74-.72l-7.37-7.21-24.25,6.13h0c-.6.14-1.2.3-1.81.46a85.58,85.58,0,0,0-10.15,3.41l-19.21,6.22.39,8.9a5,5,0,0,0,.1,2.08c1.77,6.63,17.59,8.15,35.31,3.39S203.73,191.16,202,184.54Z"/><path class="cls-5" d="M28.75,174S19,139.18,16.83,113.13,19,58,41.11,38.52s81.67-34.87,108.6-38,61.37,7.06,76.82,21.19,25.6,39.73,31.34,69.31,11.92,48.12-5.74,62.69-105.95,40.17-142.59,47.68S40.67,207.42,28.75,174Z"/><path class="cls-6" d="M96.83,203.66c-9.63-2.86-20.79-8-28.35-17.24C52.59,167,41.55,80,45.08,66.78s31.34-37.53,80.79-51.21A305.24,305.24,0,0,1,192,4.58q-2.92-.81-5.91-1.49A501.35,501.35,0,0,0,125,12.48C87,20.86,48.17,47.79,42.43,65S54.79,169.64,61.86,182.89c4.77,9,16.21,17.09,31,21.29C94.19,204,95.5,203.85,96.83,203.66Z"/><path class="cls-7" d="M190.21,4.11l.6.16h0Zm-67,8.37C85.24,20.86,46.39,47.79,40.65,65S53,169.64,60.08,182.89c4.34,8.14,17.12,16.86,30.54,21.54l2.21-.27c-14.79-4.2-26.21-12.33-31-21.27C54.79,169.64,36.69,82.23,42.43,65S87,20.86,125,12.48a502.48,502.48,0,0,1,61.07-9.39c-.62-.14-1.24-.29-1.87-.42A564.18,564.18,0,0,0,123.21,12.48ZM94.39,204l.58-.07h0Z"/><path class="cls-8" d="M257.87,91.06C252.13,61.48,242,35.87,226.53,21.75a56.91,56.91,0,0,0-9.71-7,136.76,136.76,0,0,0-49.45.7c-37.75,7.28-84.76,17.55-93,42.38s6,79.46,23.18,103.63,37.08,24.84,76.15,15.24,70.62-25,80.13-33.45c7.32-6.48,8.54-15.16,9.29-24.41C262,110.78,259.92,101.63,257.87,91.06Z"/><ellipse class="cls-9" cx="37.41" cy="126.38" rx="33.65" ry="49.67" transform="translate(-20.24 7.85) rotate(-9.45)"/><path class="cls-10" d="M17.08,161.93c5.88,7.3,13.12,12.12,20.67,13.4,25-15.37,16.58-46.1,16.58-46.1L34.16,155.51S25.45,158.66,17.08,161.93Z"/><ellipse class="cls-11" cx="27.34" cy="129.23" rx="26.65" ry="38.94" transform="translate(-27.12 8.89) rotate(-12.41)"/><path class="cls-12" d="M40.52,134.16,23.83,128,9.6,136s-2.41,3.8-5.15,8.82c5.55,13.07,15.48,22,25.67,22.83C43.91,155,40.52,134.16,40.52,134.16Z"/><ellipse class="cls-13" cx="20.6" cy="132.51" rx="19.62" ry="25.65" transform="translate(-27.99 7.52) rotate(-12.41)"/><path class="cls-14" d="M24.3,157.84c7.82-3,11.8-15.06,8.93-28.11S21.67,107.36,13.33,108c-9.49,3.32-14.76,15.71-11.89,28.76S14.3,158.81,24.3,157.84Z"/><path class="cls-15" d="M20,133.11c1,4.52-.15,8.61-2.55,9.14s-5.16-2.7-6.16-7.22.15-8.61,2.56-9.14S19,128.59,20,133.11Z"/><path class="cls-16" d="M20.67,133c1,4.52-.15,8.61-2.55,9.14S13,139.39,12,134.88s.15-8.61,2.56-9.14S19.68,128.44,20.67,133Z"/><ellipse class="cls-17" cx="129.73" cy="93.2" rx="45.8" ry="52.79"/><ellipse class="cls-18" cx="132.16" cy="91.83" rx="45.8" ry="52.79"/><ellipse class="cls-19" cx="132.66" cy="91.21" rx="38.91" ry="44.08"/><path class="cls-20" d="M131,51.11c-14.69,0-27.48,9.22-34.1,22.84a49.06,49.06,0,0,0-3.1,17.26c0,24.34,17.42,44.08,38.91,44.08,14.69,0,27.47-9.23,34.09-22.85a48.84,48.84,0,0,0,3.1-17.26C169.85,70.84,152.43,51.11,131,51.11Z"/><path class="cls-21" d="M144.43,88.42c3,8.74.11,17.62-6.39,19.83s-14.18-3.09-17.15-11.83-.11-17.63,6.39-19.83S141.46,79.68,144.43,88.42Z"/><path class="cls-22" d="M124.09,86.9c-2.13.74-3.55,2.83-4.14,5.59a22,22,0,0,0,.94,3.93c2.68,7.88,9.18,12.94,15.2,12.25,1.51-3,1.64-7.48,0-12.06C133.7,89.76,128.32,85.41,124.09,86.9Z"/><path class="cls-23" d="M136.58,81.23a2.31,2.31,0,1,1-3.26,0A2.32,2.32,0,0,1,136.58,81.23Z"/><ellipse class="cls-24" cx="229.92" cy="69.76" rx="45.8" ry="52.79"/><ellipse class="cls-25" cx="232.35" cy="68.4" rx="45.8" ry="52.79"/><ellipse class="cls-26" cx="232.85" cy="67.77" rx="38.91" ry="44.08"/><path class="cls-27" d="M231.13,27.67c-14.69,0-27.47,9.23-34.09,22.84a49.1,49.1,0,0,0-3.1,17.26c0,24.35,17.42,44.08,38.91,44.08,14.69,0,27.47-9.23,34.09-22.84A49.1,49.1,0,0,0,270,71.75C270,47.4,252.62,27.67,231.13,27.67Z"/><ellipse class="cls-28" cx="232.85" cy="68.98" rx="12.43" ry="16.72" transform="translate(-9.81 78.56) rotate(-18.76)"/><path class="cls-29" d="M224.28,63.46c-2.13.75-3.55,2.84-4.14,5.6a21.87,21.87,0,0,0,.94,3.92c2.67,7.89,9.18,13,15.2,12.25,1.51-3,1.63-7.48,0-12C233.89,66.32,228.5,62,224.28,63.46Z"/><path class="cls-30" d="M236.77,57.8a2.31,2.31,0,1,1-3.27,0A2.3,2.3,0,0,1,236.77,57.8Z"/><circle class="cls-31" cx="198.19" cy="133.44" r="13.63"/><path class="cls-6" d="M198.19,119.81a13.57,13.57,0,0,0-9.36,3.74,13.62,13.62,0,0,1,14.47,22.52,13.63,13.63,0,0,0-5.11-26.26Z"/><path class="cls-32" d="M191.13,125.5a10.68,10.68,0,0,0-5.91,3.75,13.81,13.81,0,0,0-.66,4.19,13.63,13.63,0,0,0,11.22,13.41l.36-.07a10.93,10.93,0,0,0-5-21.28Z"/></g></g></g></svg>